<svg xmlns="http://www.w3.org/2000/svg" viewBox="0 0 440 264" width="440" height="264" role="img" aria-label="Hydrosense: observed nitrate levels with a forecast and its uncertainty band"><style>
    text{font-family:-apple-system,BlinkMacSystemFont,'Segoe UI',Helvetica,Arial,sans-serif;fill:#e8edf4}
    .mono{font-family:ui-monospace,SFMono-Regular,'SF Mono',Menlo,Consolas,monospace;letter-spacing:.14em}
    .mute{fill:#8b98a9} .faint{fill:#556275}
    @keyframes drift{to{transform:translateX(-120px)}}
    .drift{animation:drift 9s linear infinite}
    .drift.slow{animation-duration:15s}
    
    @media (prefers-reduced-motion:reduce){*{animation:none!important}}
    </style><defs><clipPath id="clip"><rect width="440" height="264" rx="12"/></clipPath><pattern id="dots" width="16" height="16" patternUnits="userSpaceOnUse"><circle cx="1" cy="1" r=".8" fill="#243042"/></pattern></defs><rect width="440" height="264" rx="12" fill="#0f1620"/><rect x=".5" y=".5" width="439" height="263" rx="12" fill="none" stroke="#243042"/><text x="24" y="32" class="mono" font-size="9" fill="#556275" style="fill:#556275">01 RESEARCH · WATER QUALITY</text><line x1="30" y1="80" x2="410" y2="80" stroke="#243042" stroke-width=".7"/><line x1="30" y1="120" x2="410" y2="120" stroke="#243042" stroke-width=".7"/><line x1="30" y1="160" x2="410" y2="160" stroke="#243042" stroke-width=".7"/><line x1="30" y1="200" x2="410" y2="200" stroke="#243042" stroke-width=".7"/><line x1="30" y1="86" x2="410" y2="86" stroke="#ff5fa8" stroke-dasharray="3 4" opacity=".8"/><text x="410" y="78" text-anchor="end" font-size="9" style="fill:#ff5fa8">nitrate limit</text><line x1="250" y1="62" x2="250" y2="206" stroke="#556275" stroke-dasharray="2 3"/><text x="246" y="72" text-anchor="end" font-size="9" class="mute">observed</text><text x="255" y="72" font-size="9" style="fill:#3fd0c0">forecast</text><polygon points="250,139.3 255,133.1 260,125.7 265,117.6 270,109.7 275,102.9 280,97.9 285,95.0 290,94.3 295,95.5 300,98.0 305,100.9 310,103.5 315,105.0 320,105.2 325,104.0 330,101.7 335,99.0 340,96.6 345,95.3 350,95.6 355,97.8 360,101.8 365,107.2 370,113.1 375,118.7 380,123.3 385,126.0 390,126.7 395,125.2 400,122.2 405,118.1 410,113.8 410,173.0 405,175.7 400,178.2 395,179.6 390,179.5 385,177.2 380,172.9 375,166.7 370,159.5 365,152.0 360,145.0 355,139.4 350,135.6 345,133.7 340,133.4 335,134.2 330,135.3 325,136.0 320,135.6 315,133.8 310,130.7 305,126.5 300,122.0 295,117.9 290,115.1 285,114.2 280,115.5 275,118.9 270,124.1 265,130.4 260,136.9 255,142.7 250,147.3" fill="#3fd0c0" opacity=".16"/><polyline points="30,128.5 35,129.1 40,128.4 45,126.3 50,122.9 55,118.7 60,114.5 65,111.0 70,109.0 75,109.1 80,111.4 85,115.8 90,121.7 95,128.3 100,134.9 105,140.5 110,144.6 115,147.1 120,147.9 125,147.6 130,146.9 135,146.5 140,147.2 145,149.2 150,152.9 155,157.7 160,163.3 165,168.8 170,173.4 175,176.2 180,177.0 185,175.4 190,171.8 195,166.8 200,161.2 205,155.8 210,151.3 215,148.3 220,146.8 225,146.6 230,147.2 235,147.8 240,147.8 245,146.4 250,143.3" fill="none" stroke="#e8edf4" stroke-width="1.8" stroke-linejoin="round"/><polyline points="250,143.3 255,137.9 260,131.3 265,124.0 270,116.9 275,110.9 280,106.7 285,104.6 290,104.7 295,106.7 300,110.0 305,113.7 310,117.1 315,119.4 320,120.4 325,120.0 330,118.5 335,116.6 340,115.0 345,114.5 350,115.6 355,118.6 360,123.4 365,129.6 370,136.3 375,142.7 380,148.1 385,151.6 390,153.1 395,152.4 400,150.2 405,146.9 410,143.4" fill="none" stroke="#3fd0c0" stroke-width="2" stroke-dasharray="5 4"/><circle cx="250" cy="143.3" r="3.5" fill="#0f1620" stroke="#3fd0c0" stroke-width="2"/><g clip-path="url(#clip)"><path class="drift" d="M0,236 Q30.0,230 60.0,236 T120.0,236 T180.0,236 T240.0,236 T300.0,236 T360.0,236 T420.0,236 T480.0,236 T540.0,236 T600.0,236 V264 H0 Z" fill="#3fd0c0" opacity=".14"/><path class="drift slow" d="M0,244 Q30.0,239 60.0,244 T120.0,244 T180.0,244 T240.0,244 T300.0,244 T360.0,244 T420.0,244 T480.0,244 T540.0,244 T600.0,244 V264 H0 Z" fill="#3fd0c0" opacity=".2"/></g></svg>
